<?xml version="1.0" standalone="no"?>
<!DOCTYPE svg PUBLIC "-//W3C//DTD SVG 1.1//EN"
"http://www.w3.org/Graphics/SVG/1.1/DTD/svg11.dtd">

<svg width="240" height="68" view_box="0 0 240 68"
xmlns="http://www.w3.org/2000/svg"
xmlns:link="http://www.w3.org/1999/xlink">\n\n<desc>Généré par Mocodo 2.3.7 le Mon, 09 Dec 2019 07:43:48</desc>

<rect id="frame" x="0" y="0" width="240" height="68" fill="#f7f7f7" stroke="none" stroke-width="0"/>

<!-- Association associate -->
<line x1="29" y1="34" x2="117" y2="34" stroke="#d6604d" stroke-width="2"/>
<text x="54" y="51.0" fill="#2166ac" font-family="Verdana" font-size="12">0,N</text>
<line x1="208" y1="34" x2="117" y2="34" stroke="#d6604d" stroke-width="2"/>
<text x="158" y="51.0" fill="#2166ac" font-family="Verdana" font-size="12">0,N</text>
<g id="association-associate">
	<path d="M 139 9 a 14 14 90 0 1 14 14 V 34 h -72 V 23 a 14 14 90 0 1 14 -14" fill="#f4a582" stroke="#f4a582" stroke-width="0"/>
	<path d="M 153 34.0 v 11 a 14 14 90 0 1 -14 14 H 95 a 14 14 90 0 1 -14 -14 V 34.0 H 72" fill="#fddbc7" stroke="#fddbc7" stroke-width="0"/>
	<rect x="81" y="9" width="72" height="50" fill="none" rx="14" stroke="#d6604d" stroke-width="2"/>
	<line x1="81" y1="34" x2="153" y2="34" stroke="#d6604d" stroke-width="1"/>
	<text x="88" y="26.7" fill="#000000" font-family="Verdana" font-size="12">associate</text>
</g>

<!-- Entity links -->
<g id="entity-links">
	<g id="frame-links">
		<rect x="9" y="9" width="40" height="25" fill="#92c5de" stroke="#92c5de" stroke-width="0"/>
		<rect x="9" y="34.0" width="40" height="25" fill="#d1e5f0" stroke="#d1e5f0" stroke-width="0"/>
		<rect x="9" y="9" width="40" height="50" fill="none" stroke="#4393c3" stroke-width="2"/>
		<line x1="9" y1="34" x2="49" y2="34" stroke="#4393c3" stroke-width="1"/>
	</g>
	<text x="14" y="26.7" fill="#000000" font-family="Verdana" font-size="12">links</text>
	<text x="14" y="51.8" fill="#000000" font-family="Verdana" font-size="12">url</text>
	<line x1="14" y1="54" x2="31" y2="54" stroke="#000000" stroke-width="1"/>
</g>

<!-- Entity tags -->
<g id="entity-tags">
	<g id="frame-tags">
		<rect x="185" y="9" width="46" height="25" fill="#92c5de" stroke="#92c5de" stroke-width="0"/>
		<rect x="185" y="34.0" width="46" height="25" fill="#d1e5f0" stroke="#d1e5f0" stroke-width="0"/>
		<rect x="185" y="9" width="46" height="50" fill="none" stroke="#4393c3" stroke-width="2"/>
		<line x1="185" y1="34" x2="231" y2="34" stroke="#4393c3" stroke-width="1"/>
	</g>
	<text x="194" y="26.7" fill="#000000" font-family="Verdana" font-size="12">tags</text>
	<text x="190" y="51.8" fill="#000000" font-family="Verdana" font-size="12">name</text>
	<line x1="190" y1="54" x2="225" y2="54" stroke="#000000" stroke-width="1"/>
</g>
</svg>